<?xml version="1.0" encoding="UTF-8" standalone="no"?>
<!DOCTYPE svg PUBLIC "-//W3C//DTD SVG 1.1//EN" "http://www.w3.org/Graphics/SVG/1.1/DTD/svg11.dtd">
<svg width="100%" height="100%" viewBox="0 0 2048 2048" version="1.1" xmlns="http://www.w3.org/2000/svg" xmlns:xlink="http://www.w3.org/1999/xlink" xml:space="preserve" xmlns:serif="http://www.serif.com/" style="fill-rule:evenodd;clip-rule:evenodd;stroke-linejoin:round;stroke-miterlimit:2;">
    <g transform="matrix(3.97884,0,0,3.97884,-2608.84,-3007.68)">
        <path d="M918.379,886.091L857.46,886.091C827.681,886.091 803.46,910.313 803.46,940.091C803.46,950.031 811.51,957.585 821.46,957.585C831.411,957.585 839.46,949.53 839.46,940.091C839.46,930.169 847.526,922.091 857.46,922.091L918.379,922.091C934.41,922.091 947.46,935.136 947.46,951.223C947.46,962.316 941.29,972.3 930.304,977.846L875.348,1010.06C869.329,1013.32 866.46,1019.23 866.46,1025.59L866.46,1048.09C866.46,1058.03 874.51,1066.08 884.46,1066.08C894.411,1066.08 902.46,1058.03 902.46,1048.09L902.46,1035.88L947.46,1009.44C969.662,998.333 983.46,976.018 983.46,951.223C983.46,915.308 954.266,886.091 918.379,886.091L918.379,886.091ZM884.46,1093.09C872.035,1093.09 861.96,1103.16 861.96,1115.59C861.96,1128.01 872.035,1137.58 884.46,1137.58C896.886,1137.58 906.96,1127.51 906.96,1115.59C906.96,1103.66 896.891,1093.09 884.46,1093.09Z" style="fill:rgb(0,92,197);fill-rule:nonzero;"/>
    </g>
    <g transform="matrix(4.50664,0,0,4.50664,-3026.36,-224.46)">
        <path d="M778.803,353.416L675.809,245.922C672.783,242.322 671.534,238.947 671.534,236.079C671.534,233.21 672.783,229.346 675.296,226.747L778.29,119.253C783.438,113.856 791.981,113.681 797.359,118.849C802.773,123.982 802.949,132.557 797.763,137.923L703.732,236.079L798.232,334.741C803.418,340.085 803.242,348.68 797.828,353.816C792.472,358.985 783.922,358.816 778.803,353.416Z" style="fill:rgb(0,92,197);fill-rule:nonzero;"/>
    </g>
    <g transform="matrix(-4.50664,0,2.51565e-16,4.50664,5074.36,142.315)">
        <path d="M778.803,353.416L675.809,245.922C672.783,242.322 671.534,238.947 671.534,236.079C671.534,233.21 672.783,229.346 675.296,226.747L778.29,119.253C783.438,113.856 791.981,113.681 797.359,118.849C802.773,123.982 802.949,132.557 797.763,137.923L703.732,236.079L798.232,334.741C803.418,340.085 803.242,348.68 797.828,353.816C792.472,358.985 783.922,358.816 778.803,353.416Z" style="fill:rgb(0,92,197);fill-rule:nonzero;"/>
    </g>
</svg>
